<svg width="86" height="89" viewBox="0 0 86 89" fill="none" xmlns="http://www.w3.org/2000/svg">
<path fill-rule="evenodd" clip-rule="evenodd" d="M75.2464 63.9639C75.5006 64.3909 75.9012 64.7021 76.3676 64.8347C76.8339 64.9672 77.3313 64.9113 77.7596 64.6782C79.4318 63.6861 81.4385 62.4657 83.0725 61.4835C83.2903 61.3539 83.4813 61.181 83.6347 60.9747C83.788 60.7684 83.9007 60.5328 83.9664 60.2813C84.0321 60.0298 84.0494 59.7673 84.0173 59.5088C83.9853 59.2504 83.9045 59.001 83.7797 58.7749L73.3926 40.063C73.1389 39.6108 72.7234 39.281 72.2366 39.1453C71.7498 39.0097 71.2311 39.0792 70.7934 39.3387L65.5378 42.4838C65.3201 42.6135 65.1291 42.7864 64.9757 42.9926C64.8223 43.1989 64.7096 43.4345 64.6439 43.6861C64.5783 43.9376 64.561 44.2001 64.593 44.4585C64.6251 44.717 64.7058 44.9664 64.8307 45.1924C68.3026 51.4363 71.7745 57.6935 75.2464 63.9639ZM34.5104 5.84376C35.8661 5.00654 37.3302 4.37508 38.8582 3.9686V0.992149C38.8582 0.729015 38.9589 0.476658 39.1381 0.290594C39.3173 0.104529 39.5604 0 39.8138 0H46.1206C46.374 0 46.6171 0.104529 46.7963 0.290594C46.9755 0.476658 47.0762 0.729015 47.0762 0.992149V3.9686C48.6072 4.37509 50.0745 5.00652 51.4336 5.84376L53.5072 3.73048C53.5964 3.63292 53.7039 3.55523 53.823 3.50214C53.9421 3.44905 54.0703 3.42167 54.1999 3.42167C54.3296 3.42167 54.4578 3.44905 54.5769 3.50214C54.696 3.55523 54.8035 3.63292 54.8927 3.73048L59.3744 8.4035C59.4698 8.49631 59.5459 8.60848 59.598 8.73306C59.65 8.85764 59.6769 8.99198 59.6769 9.12777C59.6769 9.26356 59.65 9.39791 59.598 9.52249C59.5459 9.64707 59.4698 9.75924 59.3744 9.85204L57.3294 11.9157C58.1391 13.3263 58.7505 14.8497 59.145 16.4399H62.0117C62.2652 16.4399 62.5082 16.5444 62.6874 16.7305C62.8666 16.9166 62.9673 17.1689 62.9673 17.4321V23.9803C62.9673 24.2434 62.8666 24.4957 62.6874 24.6818C62.5082 24.8679 62.2652 24.9724 62.0117 24.9724H59.145C58.7557 26.58 58.1442 28.1206 57.3294 29.5462L59.3648 31.6595C59.4603 31.7523 59.5364 31.8645 59.5884 31.989C59.6405 32.1136 59.6673 32.248 59.6673 32.3838C59.6673 32.5195 59.6405 32.6539 59.5884 32.7785C59.5364 32.9031 59.4603 33.0152 59.3648 33.108L54.9023 37.7414C54.813 37.8389 54.7056 37.9166 54.5865 37.9697C54.4674 38.0228 54.3391 38.0502 54.2095 38.0502C54.0799 38.0502 53.9516 38.0228 53.8325 37.9697C53.7134 37.9166 53.606 37.8389 53.5167 37.7414L51.4813 35.6281C50.1219 36.4622 48.6546 37.0903 47.1239 37.4933V40.4698C47.1239 40.7329 47.0233 40.9853 46.8441 41.1713C46.6649 41.3574 46.4218 41.4619 46.1684 41.4619H39.8425C39.589 41.4619 39.346 41.3574 39.1668 41.1713C38.9876 40.9853 38.8869 40.7329 38.8869 40.4698V37.4933C37.3593 37.0902 35.8952 36.4621 34.5391 35.6281L32.4846 37.7414C32.3953 37.8389 32.2879 37.9166 32.1688 37.9697C32.0497 38.0228 31.9214 38.0502 31.7918 38.0502C31.6622 38.0502 31.5339 38.0228 31.4148 37.9697C31.2957 37.9166 31.1883 37.8389 31.099 37.7414L26.6174 33.108C26.5219 33.0152 26.4458 32.9031 26.3938 32.7785C26.3417 32.6539 26.3149 32.5195 26.3149 32.3838C26.3149 32.248 26.3417 32.1136 26.3938 31.989C26.4458 31.8645 26.5219 31.7523 26.6174 31.6595L28.6623 29.5462C27.86 28.1365 27.252 26.617 26.8563 25.0319H23.9895C23.7361 25.0319 23.4931 24.9274 23.3139 24.7413C23.1346 24.5553 23.034 24.3029 23.034 24.0398V17.4916C23.034 17.2285 23.1346 16.9761 23.3139 16.79C23.4931 16.604 23.7361 16.4994 23.9895 16.4994H26.8563C27.2468 14.8907 27.8549 13.3474 28.6623 11.9157L26.6269 9.80243C26.5315 9.70963 26.4553 9.59747 26.4033 9.47288C26.3513 9.3483 26.3244 9.21396 26.3244 9.07817C26.3244 8.94238 26.3513 8.80803 26.4033 8.68345C26.4553 8.55887 26.5315 8.4467 26.6269 8.3539L31.0894 3.73048C31.1787 3.63292 31.2862 3.55523 31.4053 3.50214C31.5244 3.44905 31.6526 3.42167 31.7822 3.42167C31.9118 3.42167 32.0401 3.44905 32.1592 3.50214C32.2783 3.55523 32.3858 3.63292 32.475 3.73048L34.5199 5.84376H34.5104ZM39.9667 5.79415C39.0808 5.98912 38.2139 6.26809 37.3771 6.62756C36.5329 6.99113 35.7235 7.43625 34.9595 7.95704C34.7716 8.11142 34.5348 8.1869 34.2959 8.16852C34.0569 8.15015 33.8334 8.03926 33.6695 7.85782L31.7583 5.87352L28.691 9.05832L30.6021 11.0426C30.7728 11.2136 30.8761 11.4444 30.892 11.6901C30.9079 11.9359 30.8352 12.1789 30.6881 12.3721C29.6875 13.955 28.981 15.7183 28.605 17.571C28.5834 17.8183 28.4733 18.0483 28.2964 18.2155C28.1195 18.3826 27.8886 18.4748 27.6494 18.4738H24.9738V22.9881H27.6494C27.8871 22.9869 28.1167 23.0777 28.2934 23.2428C28.4701 23.4079 28.5812 23.6355 28.605 23.881C28.7941 24.8005 29.0628 25.7004 29.4076 26.5698C29.7578 27.4463 30.1865 28.2867 30.6881 29.0799C30.8344 29.2773 30.9039 29.5247 30.8826 29.7728C30.8614 30.021 30.751 30.2518 30.5734 30.4193L28.6623 32.4036L31.7297 35.5884L33.6408 33.6041C33.806 33.4241 34.0302 33.3151 34.2691 33.2985C34.508 33.282 34.7441 33.3592 34.9308 33.5148C35.6951 34.0324 36.5045 34.4742 37.3484 34.8344C38.1837 35.1983 39.051 35.4774 39.938 35.6678C40.1746 35.6924 40.3937 35.8078 40.5528 35.9912C40.7118 36.1747 40.7992 36.4131 40.7981 36.6599V39.4379H45.1363V36.6599C45.1354 36.4115 45.2242 36.1718 45.3852 35.9881C45.5462 35.8044 45.7677 35.6901 46.0059 35.6678C46.8923 35.4745 47.7593 35.1955 48.5955 34.8344C49.4385 34.4721 50.2478 34.0304 51.0131 33.5148C51.1998 33.3592 51.436 33.282 51.6749 33.2985C51.9138 33.3151 52.138 33.4241 52.3031 33.6041L54.2143 35.5884L57.3294 32.3838L55.4183 30.3995C55.245 30.228 55.1399 29.9952 55.124 29.7472C55.1081 29.4991 55.1824 29.2539 55.3323 29.0601C55.8339 28.2668 56.2626 27.4264 56.6128 26.5499C56.9576 25.6806 57.2263 24.7807 57.4154 23.8612C57.4392 23.6156 57.5503 23.388 57.727 23.2229C57.9037 23.0578 58.1333 22.967 58.371 22.9683H61.0466V18.4837H58.371C58.1318 18.4848 57.9009 18.3926 57.724 18.2254C57.5471 18.0582 57.437 17.8283 57.4154 17.5809C57.0317 15.7227 56.3154 13.9558 55.3036 12.3721C55.16 12.1754 55.0922 11.9302 55.1134 11.6843C55.1346 11.4385 55.2433 11.2097 55.4183 11.0426L57.3294 9.05832L54.2716 5.87352L52.3605 7.85782C52.1966 8.03926 51.973 8.15015 51.7341 8.16852C51.4952 8.1869 51.2583 8.11142 51.0704 7.95704C50.3053 7.43821 49.4961 6.99319 48.6529 6.62756C47.8151 6.27068 46.9485 5.99179 46.0633 5.79415C45.825 5.7718 45.6035 5.65748 45.4425 5.47379C45.2815 5.29009 45.1927 5.05037 45.1937 4.802V2.00414H40.8267V4.78216C40.8279 5.02897 40.7405 5.26739 40.5814 5.45085C40.4224 5.6343 40.2032 5.74963 39.9667 5.77431V5.79415ZM40.2247 18.325L42.1359 21.3014C42.2061 21.4153 42.2979 21.5131 42.4058 21.5888C42.5138 21.6645 42.6354 21.7165 42.7634 21.7415C42.8914 21.7666 43.0229 21.7643 43.15 21.7347C43.2771 21.7051 43.397 21.6488 43.5023 21.5693L51.6916 15.7752C51.8051 15.7064 51.9037 15.614 51.9812 15.5039C52.0588 15.3937 52.1136 15.2682 52.1423 15.135C52.171 15.0018 52.173 14.864 52.148 14.73C52.1231 14.596 52.0718 14.4689 51.9974 14.3564C51.9264 14.2447 51.7479 15.0738 51.6404 15C51.3471 15.7739 51.1268 15.0241 51 15C50.8732 14.9759 52.1784 15.5249 51.4336 14.73C52.1359 15.7949 50.2931 17.2004 49.5 16L42.4058 20.5L40.8267 18.7096C40.6785 18.4859 39.0111 18.0979 40.1597 17.2771C39.9026 17.2278 40.6934 16.7473 40.4779 16.9013C40.2625 17.0552 40.1148 17.2917 40.0673 17.5587C40.0198 17.8257 40.0765 18.1013 40.2247 18.325ZM49.2931 20.7458C49.2912 22.0386 48.9203 23.3017 48.2272 24.3756C47.5341 25.4495 46.5499 26.286 45.3991 26.7793C44.2483 27.2727 42.9824 27.4007 41.7615 27.1473C40.5406 26.8939 39.4194 26.2705 38.5397 25.3557C37.66 24.4409 37.0612 23.2759 36.819 22.0078C36.5768 20.7398 36.702 19.4257 37.1789 18.2316C37.6558 17.0374 38.463 16.0169 39.4983 15.2989C40.5337 14.5809 41.7508 14.1977 42.9959 14.1977C43.2569 14.1977 43.5072 14.09 43.6918 13.8983C43.8764 13.7067 43.9801 13.4468 43.9801 13.1757C43.9801 12.9047 43.8764 12.6448 43.6918 12.4531C43.5072 12.2615 43.2569 12.1538 42.9959 12.1538C41.3611 12.1538 39.763 12.6572 38.4037 13.6002C37.0444 14.5432 35.985 15.8835 35.3594 17.4517C34.7337 19.0199 34.5701 20.7454 34.889 22.4102C35.2079 24.075 35.9952 25.6042 37.1511 26.8044C38.3071 28.0046 39.7799 28.822 41.3833 29.1531C42.9867 29.4843 44.6487 29.3143 46.159 28.6647C47.6694 28.0152 48.9603 26.9152 49.8685 25.5039C50.7768 24.0926 51.2616 22.4333 51.2616 20.7359C51.2616 20.4649 51.1579 20.205 50.9733 20.0133C50.7887 19.8217 50.5384 19.714 50.2773 19.714C50.0163 19.714 49.7659 19.8217 49.5814 20.0133C49.3968 20.205 49.2931 20.4649 49.2931 20.7359V20.7458ZM64.6873 49.0023L72.093 62.3169C70.1995 63.1761 68.4019 64.2474 66.7323 65.5116C62.5817 62.6772 58.1315 60.3469 53.4689 58.5666C48.1368 56.3243 43.3685 54.3301 40.4636 50.4012C39.7947 49.4983 39.5749 49.2801 38.7149 49.9547C38.6038 50.0469 38.5014 50.1499 38.4091 50.2623L35.1602 54.0424C32.8668 57.0188 30.8505 58.011 29.4267 57.7828C28.9319 57.6947 28.47 57.4667 28.0917 57.124C27.7135 56.7812 27.4334 56.3369 27.2824 55.8397C27.1314 55.3426 27.1151 54.8119 27.2355 54.3058C27.3559 53.7997 27.6082 53.3378 27.9647 52.9709L35.6857 45.0337C40.1097 44.5115 44.586 44.7393 48.9395 45.7083C53.428 46.7144 57.8566 47.9898 62.2029 49.5281C62.3746 49.5791 62.5567 49.5791 62.7284 49.5281C63.3764 49.3861 64.0148 49.2005 64.6396 48.9725L64.6873 49.0023ZM73.0868 64.1028C71.3884 64.8215 69.7833 65.758 68.309 66.8907C71.0323 70.2442 68.309 74.431 65.4422 75.0759C65.5824 75.787 65.5577 76.5225 65.3699 77.2216C65.1822 77.9207 64.8369 78.5635 64.3626 79.0966C63.8883 79.6298 63.2986 80.0381 62.6423 80.2878C61.9859 80.5376 61.2817 80.6215 60.5879 80.5328C60.6351 81.3565 60.4663 82.1781 60.0995 82.9101C59.7327 83.6421 59.1815 84.2572 58.5048 84.6899C57.8963 85.02 57.2243 85.2047 56.5382 85.2304C55.8521 85.2562 55.1691 85.1224 54.5392 84.8387C54.4054 85.5089 54.121 86.1368 53.7091 86.6713C53.2973 87.2058 52.7697 87.6317 52.1694 87.9144C51.0355 88.391 49.7676 88.391 48.6337 87.9144C46.9907 87.3 45.42 86.4945 43.9514 85.5134C42.7283 87.1306 40.7598 88.4898 38.9825 87.2595C38.54 86.917 38.1418 86.5169 37.7976 86.069C37.3924 86.326 36.9291 86.4678 36.4544 86.48C35.9797 86.4922 35.5102 86.3744 35.0933 86.1384C34.5369 85.8562 34.0548 85.4379 33.6886 84.9194C33.3224 84.4009 33.083 83.7978 32.991 83.162C31.9931 83.7324 30.8189 83.8714 29.723 83.5489C28.9056 83.2452 28.201 82.6822 27.7088 81.9397C27.2166 81.1972 26.9618 80.3128 26.9805 79.4116C23.1582 80.7808 21.4764 75.9193 23.4735 71.9705C21.5624 70.5617 19.2021 68.4087 17.4057 67.5058L13.4496 66.5732C12.8421 67.4846 11.9234 68.1219 10.88 68.3559C9.83655 68.5899 8.74646 68.4031 7.83083 67.8333L2.0974 64.3905C1.61952 64.1049 1.20071 63.7241 0.865024 63.2699C0.529338 62.8157 0.283393 62.2971 0.14132 61.744C-0.000752181 61.1908 -0.0361522 60.6139 0.0371538 60.0465C0.11046 59.4791 0.291027 58.9323 0.568482 58.4376L12.0353 37.7811C12.3136 37.2882 12.6827 36.8571 13.1216 36.5125C13.5604 36.1679 14.0604 35.9166 14.593 35.7728C15.1255 35.6291 15.6801 35.5957 16.225 35.6748C16.77 35.7538 17.2946 35.9436 17.7688 36.2333L23.5022 39.686C23.981 39.9706 24.4008 40.351 24.7372 40.805C25.0736 41.2591 25.32 41.7779 25.4622 42.3314C25.6043 42.885 25.6394 43.4622 25.5654 44.0299C25.4915 44.5976 25.3099 45.1445 25.0311 45.6389L24.84 46.1052C26.6058 46.5603 28.3149 47.2262 29.9332 48.0895L34.4913 43.4065C34.6423 43.2381 34.8449 43.1294 35.0646 43.099C39.8086 42.4806 44.6191 42.6986 49.2931 43.7439C53.7903 44.7324 58.2284 45.9913 62.5851 47.514L63.7031 47.2263L63.1298 46.2342C62.62 45.3084 62.4836 44.2109 62.7504 43.1812C63.0171 42.1514 63.6653 41.273 64.5536 40.7377L69.8092 37.5925C70.2521 37.3199 70.7434 37.1429 71.2538 37.0722C71.7641 37.0016 72.283 37.0387 72.7792 37.1814C73.2754 37.3241 73.7387 37.5694 74.1413 37.9026C74.5439 38.2358 74.8776 38.6501 75.1222 39.1205L85.4806 57.7133C85.9923 58.634 86.1328 59.7273 85.8715 60.755C85.6101 61.7827 84.9682 62.6615 84.0855 63.1999L78.8203 66.355C78.3757 66.6208 77.8847 66.7922 77.3758 66.8592C76.8669 66.9262 76.3502 66.8875 75.8558 66.7453C75.3615 66.6031 74.8992 66.3603 74.496 66.031C74.0929 65.7017 73.7568 65.2924 73.5073 64.827L73.1059 64.1028H73.0868ZM14.4912 64.6782L23.8175 47.9208C25.4148 48.2866 26.9688 48.8322 28.4521 49.5479L26.4931 51.5322C25.889 52.176 25.4678 52.9803 25.276 53.8567C25.0841 54.7332 25.1289 55.6475 25.4056 56.4992C25.6823 57.3508 26.1801 58.1065 26.8441 58.6831C27.5081 59.2598 28.3125 59.6349 29.1687 59.7671C31.2137 60.0151 33.8893 58.9138 36.6795 55.2925L39.3551 52.2367C42.585 56.2053 47.3915 58.2392 52.7331 60.4814C57.0619 62.2971 61.7537 64.2615 66.1112 67.5455C66.5557 67.8514 66.9092 68.2799 67.132 68.7829C67.3549 69.2859 67.4381 69.8435 67.3725 70.393C67.1718 71.534 65.6143 73.3695 63.9898 72.7246C62.9132 71.9679 61.7786 71.3042 60.5975 70.7403C59.3499 70.1089 58.149 69.3827 57.0046 68.5674C56.901 68.4886 56.7836 68.4317 56.6589 68.4C56.5342 68.3684 56.4047 68.3625 56.2778 68.3827C56.1509 68.403 56.0291 68.449 55.9193 68.5182C55.8096 68.5873 55.714 68.6782 55.6381 68.7857C55.5622 68.8932 55.5074 69.0152 55.4769 69.1446C55.4463 69.2741 55.4407 69.4086 55.4602 69.5403C55.4797 69.6721 55.524 69.7985 55.5906 69.9125C55.6572 70.0264 55.7448 70.1257 55.8483 70.2045C57.0616 71.0902 58.3396 71.8764 59.6706 72.5559C60.8603 73.1634 62.0096 73.8528 63.1107 74.6196C64.5536 77.0602 62.1551 79.6795 59.4221 78.1715C58.2564 77.2587 57.0428 76.4352 55.8005 75.6018C55.0074 75.066 54.2047 74.5203 53.316 73.8754C53.1006 73.7202 52.8346 73.6602 52.5766 73.7085C52.3185 73.7569 52.0895 73.9097 51.94 74.1334C51.7905 74.3571 51.7327 74.6332 51.7793 74.9012C51.8259 75.1691 51.973 75.4069 52.1885 75.5621C52.9911 76.1276 53.8607 76.7229 54.7303 77.3083C56.1445 78.3004 57.0237 78.8858 58.3806 79.9077C58.7437 80.1855 58.6577 82.2095 57.425 82.8842C56.6892 83.3108 55.5139 83.281 53.7843 82.2492C53.2491 81.8722 52.8287 81.5348 52.3796 81.1975C51.3967 80.41 50.3692 79.6844 49.3026 79.0247C49.0758 78.8931 48.8079 78.8605 48.558 78.934C48.308 79.0075 48.0963 79.1811 47.9696 79.4166C47.8429 79.6521 47.8115 79.9302 47.8823 80.1898C47.9531 80.4493 48.1202 80.6691 48.3471 80.8007C49.3392 81.4033 50.2964 82.0659 51.2138 82.785C52.8287 84.0251 52.6089 84.7692 52.0165 85.5034C50.9462 86.7436 50.0098 86.2178 49.2166 85.94C47.7308 85.4015 46.3102 84.6857 44.9835 83.8069C45.939 81.8226 46.1493 79.3719 44.4674 78.1615C43.6901 77.6656 42.7745 77.4559 41.8683 77.5662C41.9352 75.5819 41.4096 73.9548 40.0336 73.2008C38.8009 72.536 37.1669 73.1413 35.9724 74.0342C35.5625 73.3289 34.931 72.7919 34.1843 72.5135C33.4376 72.2352 32.6213 72.2327 31.873 72.5063C31.8569 71.9925 31.7239 71.49 31.4847 71.0398C31.2455 70.5897 30.907 70.2049 30.497 69.9168C28.4998 68.756 26.3689 68.6567 24.6393 70.3533C22.5275 68.8155 20.3584 66.7419 18.2466 65.6902C18.0746 65.591 15.6283 64.9858 14.4912 64.6981V64.6782ZM16.775 37.9497C16.265 37.647 15.6605 37.5657 15.0931 37.7237C14.5257 37.8816 14.0415 38.266 13.7458 38.793L2.27895 59.4496C2.1333 59.7115 2.03877 60.0005 2.00076 60.3004C1.96275 60.6002 1.98201 60.9048 2.05744 61.1969C2.13287 61.489 2.26299 61.7627 2.44037 62.0026C2.61774 62.2424 2.83889 62.4436 3.09119 62.5947L8.91062 66.0871C9.41969 66.3867 10.0219 66.4662 10.587 66.3084C11.1521 66.1506 11.6346 65.7681 11.9302 65.2437L23.3971 44.5773C23.5425 44.3162 23.6369 44.0278 23.6748 43.7288C23.7126 43.4297 23.6933 43.1259 23.6178 42.8346C23.5424 42.5433 23.4123 42.2704 23.235 42.0314C23.0578 41.7925 22.8368 41.5922 22.5849 41.4421L16.775 37.9497ZM43.4163 82.4079C43.8272 81.3066 43.9228 80.2252 43.3494 79.8085C43.0766 79.6495 42.7689 79.5659 42.456 79.5659C42.143 79.5659 41.8354 79.6495 41.5625 79.8085C41.1448 81.612 40.3631 83.3028 39.2691 84.7692C39.5055 85.0873 39.7819 85.3709 40.0909 85.6126C41.2281 86.4261 43.0819 83.3207 43.4163 82.4377V82.4079ZM39.7087 79.0247C39.8807 77.9532 40.3298 75.6315 39.1258 74.9767C38.4856 74.6295 37.1287 75.5919 36.6891 76.0582C36.76 77.0343 36.6427 78.0152 36.3441 78.9437C36.0455 79.8721 35.5715 80.7294 34.95 81.4654C34.7684 82.646 34.8926 83.7374 35.9915 84.3327C36.6126 84.67 37.3675 83.9458 37.7976 83.3406C38.7429 82.0533 39.3962 80.561 39.7087 78.9751V79.0247ZM29.4841 74.2525C29.6943 73.4687 30.3345 72.3674 29.4841 71.6233C28.0221 70.7899 26.8849 70.9883 26.1014 71.6233C24.41 73.1016 24.0755 76.7924 25.356 77.4373C25.9485 77.7349 26.8754 77.2785 27.7449 76.5046C28.4656 75.8644 29.0568 75.082 29.4841 74.2029V74.2525ZM30.3537 81.5944C33.2204 82.2988 36.498 76.4947 33.6886 74.4807C32.5037 73.6274 31.3092 75.1652 30.7454 76.0681C29.981 77.2785 27.2194 80.8304 30.3537 81.5944Z" fill="#2E2E2E"/>
<path d="M40 17.5L42.5 21.5L51.5 15" stroke="#F45F3E" stroke-width="2" stroke-linecap="round" stroke-linejoin="round"/>
</svg>
