<svg version="1.2" xmlns="http://www.w3.org/2000/svg" viewBox="0 0 95 93" width="95" height="93"><defs><clipPath clipPathUnits="userSpaceOnUse" id="cp1"><path d="m0 0h95v118.75h-95z"/></clipPath></defs><style>.a{fill:none;stroke:#f45f3e;stroke-width:3}</style><g clip-path="url(#cp1)"><path fill-rule="evenodd" d="m37 75.9q-0.3 0-0.5 0.1-0.3 0.1-0.4 0.3l-1.8 1.9c0.4 0.6 0.6 1.4 0.5 2.1 0 0.8-0.3 1.5-0.8 2l-6.4 7.1c-0.6 0.7-1.5 1.1-2.3 1.1-0.9 0-1.8-0.3-2.5-0.9l-19.2-17.4c-0.7-0.6-1.1-1.4-1.1-2.3 0-0.9 0.3-1.8 0.9-2.4l6.4-7.1c0.5-0.6 1.3-1 2.1-1.1 0.8-0.1 1.6 0.1 2.3 0.6l8.8-8.7c2.7-2.8 6.3-4.6 10.2-5l0.5-0.8q-1.2-2.2-1.9-4.7l-5.9-1q-0.3-0.1-0.6-0.4-0.2-0.3-0.2-0.7v-9.2q0-0.4 0.2-0.7 0.3-0.3 0.6-0.4l5.9-1q0.7-2.4 1.9-4.7l-3.4-4.8q-0.2-0.3-0.2-0.7 0.1-0.4 0.3-0.7l6.6-6.5q0.3-0.3 0.6-0.3 0.4-0.1 0.7 0.1l4.9 3.4q2.2-1.2 4.7-1.9l1-5.8q0.1-0.4 0.4-0.7 0.3-0.2 0.6-0.2h9.3q0.4 0 0.7 0.2 0.3 0.3 0.3 0.7l1.1 5.8q2.4 0.7 4.7 1.9l4.8-3.4q0.3-0.2 0.7-0.1 0.4 0 0.7 0.3l6.5 6.5q0.3 0.3 0.3 0.7 0 0.4-0.2 0.7l-3.4 4.8q1.3 2.3 2 4.7l5.8 1q0.4 0.1 0.6 0.4 0.3 0.3 0.3 0.7v9.2q0 0.4-0.3 0.7-0.2 0.3-0.6 0.4l-5.8 1q-0.7 2.5-2 4.7l1.2 1.6 1.7-2.6q0.6-1 1.5-1.6c4.1-2.8 7.1-3.8 9.4-2.9q2.3 0.9 3.1 4.1c0.2 0.9 0.3 1.8 0.1 2.6-0.2 0.9-0.6 1.7-1.2 2.4l-19.6 24.3c-0.6 0.8-1.4 1.5-2.4 1.9-0.9 0.5-1.9 0.7-3 0.7h-29.2zm-3.4-36.4q0.8 2.9 2.3 5.4 0.1 0.3 0.1 0.6 0 0.3-0.2 0.6c4.2 0.2 8.1 1.9 11 4.8h13.6c1.2 0 2.4 0.3 3.5 0.9 1.1 0.7 1.9 1.6 2.5 2.7l8.7-5.2 0.2-0.4-2-2.8q-0.2-0.3-0.2-0.6 0-0.3 0.2-0.6 1.5-2.5 2.2-5.4 0.1-0.3 0.3-0.5 0.2-0.2 0.5-0.3l5.7-1v-7.5l-5.7-0.9q-0.3-0.1-0.5-0.3-0.2-0.2-0.3-0.5-0.7-2.9-2.2-5.4-0.2-0.3-0.2-0.6 0-0.3 0.2-0.6l3.3-4.6-5.3-5.3-4.7 3.3q-0.2 0.1-0.5 0.1-0.3 0.1-0.6-0.1-2.6-1.5-5.4-2.2-0.3-0.1-0.5-0.3-0.2-0.3-0.3-0.6l-1-5.6h-7.5l-1 5.6q0 0.3-0.2 0.6-0.2 0.2-0.5 0.3-2.9 0.7-5.5 2.2-0.2 0.2-0.5 0.1-0.3 0-0.6-0.1l-4.7-3.3-5.3 5.3 3.3 4.6q0.2 0.3 0.2 0.6 0 0.3-0.1 0.6-1.5 2.5-2.3 5.4-0.1 0.3-0.3 0.5-0.2 0.2-0.5 0.3l-5.6 1v7.5l5.6 0.9q0.3 0.1 0.5 0.3 0.2 0.2 0.3 0.5zm-0.8 37.2zm1.7-1.9q0.5-0.5 1.1-0.7 0.7-0.3 1.4-0.3h29.2q1.1 0 2.1-0.5 1-0.4 1.7-1.3l19.6-24.4q0.5-0.6 0.7-1.4 0.2-0.9 0-1.7-0.6-2.2-1.9-2.6c-1-0.4-3.2-0.3-7.4 2.6q-0.6 0.4-0.9 1l-3.4 5.1q-0.1 0.2-0.3 0.3l-9.3 5.7q0.1 0.5 0.1 1.1c0 1.8-0.7 3.6-2 4.8-1.3 1.3-3 2.1-4.8 2.1h-17.4q-0.2 0-0.4-0.1-0.2-0.1-0.4-0.2-0.1-0.2-0.2-0.4-0.1-0.2-0.1-0.4 0-0.2 0.1-0.4 0.1-0.2 0.2-0.4 0.2-0.1 0.4-0.2 0.2-0.1 0.4-0.1h17.4c1.2 0 2.4-0.5 3.3-1.3 0.9-0.9 1.4-2.1 1.4-3.4 0-1.2-0.5-2.4-1.4-3.3-0.9-0.9-2.1-1.4-3.3-1.4h-14q-0.2 0-0.4-0.1-0.2-0.1-0.4-0.2c-1.3-1.5-3-2.6-4.8-3.4-1.8-0.7-3.7-1.1-5.7-1.1-2 0-3.9 0.4-5.7 1.1-1.9 0.8-3.5 1.9-4.9 3.4q0 0 0 0l-8.7 8.6 17 15.4zm-1.8 5.2c0-0.4-0.2-0.7-0.4-0.9l-19.2-17.4c-0.3-0.3-0.6-0.4-1-0.4-0.3 0.1-0.6 0.2-0.8 0.5l-6.4 7q-0.2 0.2-0.3 0.4-0.1 0.3-0.1 0.5 0.1 0.3 0.2 0.5 0.1 0.2 0.3 0.4l19.2 17.4c0.2 0.2 0.6 0.4 0.9 0.3 0.3 0 0.6-0.1 0.9-0.4l6.4-7c0.2-0.3 0.3-0.6 0.3-0.9zm12-36.3c-2.5-2.6-4-6.1-4-9.7 0-2.8 0.8-5.4 2.3-7.7 1.5-2.3 3.7-4.1 6.2-5.1 2.5-1 5.3-1.3 8-0.8 2.7 0.6 5.1 1.9 7.1 3.8 1.9 1.9 3.2 4.4 3.7 7.1 0.6 2.6 0.3 5.4-0.7 7.9-1.1 2.6-2.9 4.7-5.1 6.2-2.3 1.5-5 2.4-7.7 2.4-3.7-0.1-7.2-1.5-9.8-4.1zm1.5-18c-2.2 2.2-3.4 5.2-3.4 8.3 0 2.3 0.7 4.5 2 6.4 1.3 2 3.1 3.5 5.2 4.4 2.2 0.8 4.5 1.1 6.8 0.6 2.3-0.4 4.3-1.5 6-3.2 1.6-1.6 2.7-3.7 3.2-6 0.4-2.2 0.2-4.6-0.7-6.7-0.9-2.2-2.4-4-4.3-5.3-1.9-1.3-4.2-1.9-6.5-1.9-3.1 0-6.1 1.2-8.3 3.4z"/><path fill-rule="evenodd" class="a" d="m55 46.5c-6.9 0-12.5-5.6-12.5-12.5 0-6.9 5.6-12.5 12.5-12.5 6.9 0 12.5 5.6 12.5 12.5 0 6.9-5.6 12.5-12.5 12.5z"/></g></svg>