<svg width="92" height="96" viewBox="0 0 92 96" fill="none" xmlns="http://www.w3.org/2000/svg">
<path d="M52.7891 65.8673C51.3321 66.0174 49.9493 66.3744 48.6797 66.926H48.6757C48.6562 66.9342 48.6367 66.9423 48.6132 66.9504C45.7265 68.1957 43.3007 70.4432 41.7812 73.2746L41.25 74.2644C41.0117 74.7188 40.5469 75.0027 40.0391 75.0027H34.9844C34.4766 75.0027 34.0117 74.7228 33.7656 74.2563L33.2383 73.2787C31.7188 70.443 29.293 68.1958 26.4063 66.9503C26.3867 66.9422 26.3672 66.9341 26.3438 66.926C26.3398 66.926 26.3359 66.9219 26.332 66.9219C23.4218 65.6765 20.1679 65.4778 17.164 66.3621L16.1171 66.6663C15.6171 66.8164 15.1054 66.6785 14.746 66.2972L11.1757 62.5895C10.8125 62.2122 10.6796 61.6808 10.8242 61.1575L11.1132 60.0824C11.9648 56.9629 11.7734 53.5797 10.5742 50.5534C10.5703 50.5494 10.5703 50.5453 10.5703 50.5413C10.5625 50.521 10.5546 50.5007 10.5468 50.4764C9.34763 47.4785 7.18353 44.9594 4.45703 43.3814L3.50391 42.8297C3.06641 42.5822 2.79297 42.0995 2.79297 41.5722V36.3229C2.79297 35.7956 3.0625 35.3128 3.51172 35.0572L4.45313 34.5096C7.18363 32.9316 9.34763 30.4124 10.5469 27.4146C10.5547 27.3943 10.5626 27.374 10.5704 27.3497C10.5704 27.3456 10.5743 27.3416 10.5743 27.3375C11.7735 24.3153 11.9649 20.9321 11.1133 17.8166L10.8204 16.7294C10.6797 16.2142 10.8126 15.6828 11.1758 15.3055L14.7461 11.5978C15.1094 11.2205 15.6211 11.0867 16.125 11.2327L17.1602 11.5329C20.1641 12.4213 23.4219 12.2185 26.336 10.9731C26.3399 10.969 26.3438 10.969 26.3478 10.969C26.3673 10.9609 26.3868 10.9528 26.4103 10.9447C29.297 9.69934 31.7228 7.45194 33.2423 4.62049L33.7735 3.63068C34.0118 3.17634 34.4766 2.89237 34.9844 2.89237H40.0391C40.5469 2.89237 41.0118 3.17228 41.2579 3.63879L41.7852 4.61644C43.3047 7.45204 45.7305 9.69934 48.6172 10.9448C48.6368 10.9529 48.6563 10.961 48.6797 10.9691C48.6837 10.9691 48.6876 10.9732 48.6915 10.9732C51.6017 12.2186 54.8595 12.4173 57.8595 11.533L58.9064 11.2288C59.4025 11.0746 59.9142 11.2166 60.2775 11.5979L63.8478 15.3056C64.211 15.6829 64.3438 16.2143 64.1993 16.7376L63.9103 17.8127C63.0587 20.9322 63.2501 24.3154 64.4493 27.3417C64.4532 27.3457 64.4532 27.3498 64.4532 27.3538C64.461 27.3741 64.4688 27.3944 64.4767 27.4187C65.6759 30.4165 67.84 32.9357 70.5665 34.5137L71.5196 35.0654C71.9571 35.3129 72.2305 35.7956 72.2305 36.3229V41.5722C72.2305 41.7142 72.211 41.8561 72.1719 41.99C71.7266 42.2212 71.4415 42.7121 71.4415 43.28C71.4415 44.0792 72.1211 44.7161 72.8868 44.7161C73.3907 44.7891 73.8946 44.57 74.1954 44.1441C74.7266 43.3936 75.0079 42.5052 75.0079 41.5721V36.3229C75.0079 34.7408 74.1836 33.2885 72.8673 32.5381L71.9219 31.9905C69.7461 30.737 68.0235 28.733 67.0586 26.3477C67.0391 26.295 67.0196 26.2422 66.9961 26.1936C66.0469 23.7799 65.8984 21.0862 66.5821 18.5955L66.8711 17.5205C67.2891 16.0033 66.879 14.3726 65.8086 13.261L62.2384 9.55327C61.1681 8.44178 59.5978 8.01984 58.1446 8.44583L57.0976 8.75007C54.7031 9.45593 52.1133 9.29771 49.7891 8.32008C49.7383 8.29574 49.6875 8.27545 49.6328 8.25517C47.3398 7.25319 45.414 5.46422 44.2031 3.20467L43.6797 2.23515C42.9531 0.855925 41.5547 0 40.0313 0H34.9766C33.4532 0 32.0547 0.855946 31.3321 2.223L30.8047 3.20469C29.5977 5.46424 27.668 7.25315 25.3711 8.25519C25.3203 8.27547 25.2696 8.29576 25.2227 8.3201C22.8985 9.30585 20.3047 9.46005 17.9063 8.75009L16.8711 8.44991C15.4063 8.01991 13.8399 8.4418 12.7695 9.55331L9.19918 13.261C8.12498 14.3725 7.71868 16.0033 8.13278 17.5124L8.42575 18.5996C9.10544 21.0822 8.957 23.7759 8.01169 26.1895C7.98825 26.2423 7.96872 26.295 7.94919 26.3518C6.98435 28.7331 5.26169 30.733 3.08589 31.9905L2.1523 32.5341C0.8242 33.2886 0 34.7409 0 36.3229V41.5722C0 43.1542 0.82422 44.6066 2.1406 45.357L3.08591 45.9046C5.26171 47.1581 6.98431 49.162 7.94921 51.5474C7.96874 51.6001 7.98827 51.6528 8.01171 51.7015C8.96093 54.1152 9.10941 56.8088 8.42577 59.2995L8.13671 60.3746C7.71874 61.8917 8.1289 63.5225 9.19921 64.6341L12.7695 68.3418C13.8398 69.4533 15.414 69.8752 16.8633 69.4492L17.9102 69.145C20.3008 68.4391 22.8946 68.5933 25.2188 69.575C25.2696 69.5993 25.3204 69.6196 25.3751 69.6399C27.6681 70.6419 29.5939 72.4308 30.8048 74.6904L31.3282 75.6599C32.0548 77.0391 33.4532 77.8951 34.9766 77.8951H40.0313C41.5547 77.8951 42.9532 77.0391 43.6758 75.6721L44.2031 74.6904C45.4101 72.4308 47.3398 70.6419 49.6367 69.6399C49.6914 69.6196 49.7422 69.5993 49.793 69.575C50.7969 69.145 51.8946 68.8651 53.0586 68.7434C53.8203 68.6663 54.3789 67.9604 54.3047 67.1654C54.2305 66.3743 53.5781 65.7983 52.7852 65.8713L52.7891 65.8673Z" fill="#3B3B3B"/>
<path d="M27.168 24.766C26.5273 24.3238 25.6641 24.5023 25.2422 25.1676L16.9102 38.1488C16.5977 38.6315 16.5977 39.2643 16.9102 39.7471L25.2422 52.7282C25.5078 53.1461 25.9492 53.3692 26.3984 53.3692C26.664 53.3692 26.9296 53.2921 27.1679 53.1258C27.8085 52.6836 27.9804 51.7871 27.5546 51.1259L19.7343 38.9444L27.5546 26.7628C27.9804 26.0976 27.8085 25.2051 27.1679 24.7629L27.168 24.766Z" fill="#F45F3E"/>
<path d="M47.8519 53.1251C48.0902 53.2874 48.3558 53.3685 48.6215 53.3685C49.0707 53.3685 49.5121 53.1413 49.7777 52.7276L58.1097 39.7464C58.4222 39.2637 58.4222 38.6309 58.1097 38.1481L49.7777 25.1669C49.3519 24.5016 48.4886 24.3272 47.8519 24.7653C47.2112 25.2075 47.0394 26.104 47.4651 26.7652L55.2854 38.9468L47.4651 51.1283C47.0394 51.7935 47.2112 52.686 47.8519 53.1282L47.8519 53.1251Z" fill="#F45F3E"/>
<path d="M41.7968 25.3787L30.6879 51.341C30.3754 52.0712 30.6918 52.923 31.3949 53.2435C31.5785 53.3287 31.7699 53.3692 31.9574 53.3692C32.4886 53.3692 32.9965 53.0488 33.2269 52.5133L44.3359 26.551C44.6484 25.8208 44.332 24.969 43.6288 24.6485C42.9296 24.324 42.1054 24.6525 41.7968 25.3827V25.3787Z" fill="#F45F3E"/>
<path d="M86.1288 51.3856C82.5507 47.8198 77.8476 45.9416 72.8828 46.1729C63.6914 46.5542 56.0978 54.3227 55.5938 63.8595C55.2267 70.8125 58.5665 77.3682 64.3165 80.9582C65.7931 81.8831 66.6798 83.4287 66.6798 85.1041C66.6798 86.3779 67.2228 87.5137 68.0704 88.3047V90.8726C68.0704 93.2579 69.9376 95.201 72.2384 95.201H75.0157C77.3126 95.201 79.1837 93.262 79.1837 90.8726V88.3047C80.0314 87.5096 80.5743 86.3697 80.5743 85.0878C80.5743 83.4245 81.4533 81.8872 82.9259 80.9662C88.4103 77.5384 91.6837 71.5387 91.6837 64.9101C91.6837 59.7582 89.711 54.9552 86.1368 51.3858L86.1288 51.3856ZM76.3983 90.8722C76.3983 91.6673 75.7773 92.3163 75.0077 92.3163H72.2304C71.4648 92.3163 70.8398 91.6713 70.8398 90.8722V89.4281H76.3945V90.8722H76.3983ZM81.4881 78.4913C79.1717 79.9354 77.7889 82.4018 77.7889 85.0995C77.7889 85.8946 77.1679 86.5436 76.3983 86.5436H70.8436C70.078 86.5436 69.453 85.8986 69.453 85.0874C69.453 82.406 68.0663 79.9396 65.746 78.4872C60.8827 75.4448 58.0546 69.9035 58.3632 64.0169C58.789 55.9483 65.2109 49.3804 72.9882 49.0564C73.1992 49.0483 73.4101 49.0442 73.621 49.0442C77.5898 49.0442 81.3242 50.6019 84.1991 53.4659C87.2264 56.484 88.8944 60.5528 88.8944 64.9101C88.8944 70.5163 86.1249 75.5951 81.4803 78.4956L81.4881 78.4913Z" fill="#3B3B3B"/>
<path d="M76.9688 54.9955C76.1368 53.961 74.918 53.3688 73.6211 53.3688C72.3242 53.3688 71.1055 53.961 70.2734 54.9955L64.6914 61.9525C64.1797 62.5894 63.8984 63.4007 63.8984 64.2323C63.8984 66.1957 65.4375 67.794 67.3281 67.794H69.4531V77.891C69.4531 78.6901 70.0742 79.3351 70.8437 79.3351C71.6133 79.3351 72.2343 78.6901 72.2343 77.891V66.3544C72.2343 65.5552 71.6133 64.9103 70.8437 64.9103H67.3281C66.9688 64.9103 66.6758 64.606 66.6758 64.2328C66.6758 64.0746 66.7305 63.9205 66.8281 63.8028L72.4101 56.8457C73.0078 56.0953 74.2343 56.0953 74.832 56.8457L80.414 63.8028C80.5117 63.9245 80.5664 64.0746 80.5664 64.2328C80.5664 64.606 80.2734 64.9103 79.914 64.9103H76.3984C75.6289 64.9103 75.0078 65.5553 75.0078 66.3544V73.567C75.0078 74.3662 75.6289 75.0112 76.3984 75.0112C77.168 75.0112 77.789 74.3662 77.789 73.567V67.7985H79.914C81.8046 67.7985 83.3437 66.2002 83.3437 64.2368C83.3437 63.4052 83.0625 62.5939 82.5508 61.957L76.9688 54.9999L76.9688 54.9955Z" fill="#3B3B3B"/>
</svg>
